<svg class="img-fluid" id="outputsvg" xmlns="http://www.w3.org/2000/svg" style="transform: matrix(1, 0, 0, 1, 0, 0); transform-origin: 50% 50%; cursor: move; transition: transform 200ms ease-in-out 0s;" width="478" height="497" viewBox="0 0 4780 4970"><g id="l557ehd9kCdnGYhstaFZ6Tv" fill="rgb(53,48,42)" style="transform: none;"><g><path id="pLCAvXR43" d="M2097 4614 c-31 -25 -57 -51 -57 -57 0 -7 -16 -22 -35 -34 -24 -16 -37 -35 -45 -62 -11 -42 -33 -67 -50 -56 -12 7 -52 -74 -43 -89 3 -5 1 -6 -4 -3 -6 4 -14 0 -17 -9 -3 -8 -10 -12 -16 -9 -5 3 -10 1 -10 -6 0 -6 -8 -9 -20 -6 -12 3 -18 1 -14 -5 5 -7 -2 -9 -18 -5 -37 10 -68 -17 -68 -59 0 -42 -15 -74 -35 -74 -28 0 -15 -37 28 -80 46 -48 80 -58 205 -59 49 -1 62 2 62 14 0 8 -6 15 -13 15 -20 0 -14 66 9 98 11 15 35 58 54 96 19 37 39 70 46 73 6 2 35 33 65 69 31 38 71 74 96 86 64 32 106 79 98 111 -5 20 -11 24 -23 18 -10 -5 -28 -14 -42 -20 -14 -6 -45 -23 -70 -37 -25 -14 -49 -27 -55 -28 -5 -1 -15 -5 -21 -9 -24 -14 -24 37 0 68 27 35 59 95 54 100 -2 2 -29 -16 -61 -41z"></path><path id="pgUvP5YxZ" d="M4309 3531 c-37 -36 -72 -76 -78 -88 -14 -28 -31 -30 -31 -5 0 10 -6 27 -14 38 -14 18 -16 18 -32 2 -12 -12 -17 -33 -17 -72 0 -37 -4 -57 -13 -60 -8 -3 -14 -12 -14 -21 0 -8 -9 -15 -20 -15 -11 0 -29 -14 -42 -30 -12 -17 -28 -28 -36 -25 -7 3 -22 0 -34 -6 -15 -8 -22 -7 -32 7 -19 25 -36 8 -36 -37 0 -25 11 -58 30 -93 26 -46 36 -54 68 -60 59 -9 62 -8 62 27 0 39 15 57 46 57 13 0 25 4 28 9 3 5 26 14 50 20 26 6 53 22 68 39 12 15 50 47 83 72 78 57 125 101 125 116 0 25 -21 25 -76 0 -68 -31 -91 -33 -99 -6 -7 22 -5 26 46 95 36 48 60 106 43 104 -5 -1 -39 -31 -75 -68z"></path><path id="pgkwyFpcj" d="M2900 3471 c0 -28 -4 -53 -10 -56 -13 -8 -13 -82 0 -90 6 -4 6 -15 0 -31 -13 -34 -13 -71 2 -183 11 -84 16 -99 44 -128 28 -29 37 -33 84 -33 48 0 55 3 86 37 27 30 34 45 34 78 0 52 -33 105 -78 124 -49 22 -59 101 -11 101 17 0 19 8 19 95 0 95 0 95 -32 115 -22 13 -51 20 -85 20 -53 0 -53 0 -53 -49z"></path><path id="pkHMR07fL" d="M2612 3085 c-15 -33 -15 -102 -1 -144 9 -24 17 -31 38 -31 15 0 31 -4 37 -10 5 -5 42 -12 82 -16 72 -7 72 -7 72 36 0 24 -7 70 -16 102 -14 49 -20 58 -39 58 -12 0 -39 7 -58 15 -58 24 -102 20 -115 -10z"></path><path id="p18uG8J8Nr" d="M665 3073 c-72 -15 -67 -11 -63 -58 3 -45 -4 -57 -19 -31 -12 21 -111 31 -255 27 -21 -1 -38 -5 -38 -10 0 -5 -16 -19 -36 -30 -24 -15 -34 -26 -30 -37 4 -11 0 -15 -17 -14 -43 4 -56 0 -62 -20 -4 -12 -2 -27 4 -34 6 -7 8 -16 4 -19 -3 -4 6 -7 20 -7 15 0 27 -5 27 -11 0 -5 4 -8 9 -5 13 8 42 -4 35 -15 -3 -5 11 -9 30 -9 25 0 40 -7 54 -24 12 -16 31 -26 53 -28 32 -3 34 -5 31 -38 -3 -31 3 -41 37 -73 33 -30 41 -45 41 -72 0 -19 4 -35 9 -35 4 0 6 -22 3 -49 -4 -45 -3 -49 22 -55 27 -7 34 -24 15 -43 -8 -8 3 -24 40 -60 46 -45 51 -54 51 -94 1 -195 12 -242 75 -309 18 -19 36 -45 40 -58 5 -17 13 -22 28 -20 32 4 35 58 6 106 -20 34 -22 48 -20 177 1 126 -1 148 -23 215 -32 94 -32 133 -2 196 33 69 48 79 115 76 89 -3 111 27 111 153 0 78 -2 88 -25 111 -29 29 -31 34 -10 34 10 0 15 10 15 33 0 35 -20 56 -90 92 -19 10 -39 24 -43 31 -8 14 -93 18 -142 7z"></path><path id="pNNli9X9D" d="M2945 2758 c-7 -23 -23 -40 -55 -58 -35 -21 -51 -39 -74 -86 -15 -32 -31 -76 -33 -96 -6 -37 -6 -37 -97 -40 -91 -3 -91 -3 -94 -30 -3 -27 -5 -28 -64 -28 -45 0 -66 -5 -85 -20 -16 -12 -41 -20 -64 -20 -62 0 -121 -32 -144 -76 -21 -40 -62 -83 -81 -84 -5 0 -23 -14 -40 -31 -31 -33 -155 -119 -171 -119 -6 0 -28 -12 -49 -27 -21 -14 -57 -32 -79 -38 -27 -8 -41 -19 -45 -34 -3 -12 -16 -29 -31 -39 -42 -29 -109 -108 -109 -130 0 -13 -9 -22 -25 -26 -19 -5 -25 -13 -25 -33 0 -33 -20 -101 -39 -135 -35 -59 -96 -145 -125 -176 -30 -32 -31 -37 -34 -130 -2 -53 -8 -101 -13 -106 -22 -24 -9 -93 33 -166 5 -8 22 -42 38 -74 16 -33 55 -87 87 -120 32 -34 69 -77 83 -96 54 -74 199 -214 275 -265 44 -30 116 -68 160 -86 44 -18 91 -39 105 -48 36 -23 449 -22 567 2 45 9 90 20 100 25 224 105 346 187 461 307 119 124 191 230 247 365 15 36 44 88 64 115 34 45 39 59 45 130 6 64 4 87 -8 110 -9 17 -16 37 -16 45 0 25 -59 70 -91 70 -24 0 -30 -5 -38 -37 -12 -43 -13 -96 -3 -163 8 -48 -24 -164 -66 -245 -12 -22 -30 -59 -41 -81 -11 -25 -32 -48 -50 -57 -31 -15 -31 -15 -31 12 0 19 -16 44 -57 87 -81 83 -111 104 -150 104 -32 0 -33 2 -33 38 0 46 -11 61 -72 95 -33 19 -61 27 -96 27 -33 0 -54 5 -63 16 -11 13 -25 15 -72 10 -32 -3 -63 -8 -68 -12 -5 -3 -9 -24 -9 -48 0 -67 -31 -83 -91 -47 -17 11 -36 30 -43 43 -9 19 -26 26 -90 38 -78 15 -78 15 -57 34 19 17 32 18 151 12 136 -7 152 -4 198 37 18 16 22 31 22 75 0 45 5 62 27 91 17 22 30 53 33 81 5 44 6 45 43 48 29 3 40 9 52 32 8 16 15 35 15 43 0 32 26 39 92 27 35 -6 80 -14 100 -17 20 -3 46 -16 59 -29 12 -13 27 -24 33 -24 14 -1 66 -46 66 -57 0 -16 96 -53 138 -53 42 0 42 0 42 40 0 22 -4 40 -10 40 -5 0 -10 20 -10 45 0 38 -5 50 -32 75 -18 16 -42 32 -53 36 -28 9 -56 35 -66 62 -7 17 -16 22 -44 22 -36 0 -56 14 -88 63 -9 15 -24 27 -32 27 -8 0 -15 6 -15 14 0 8 -25 30 -55 50 -30 20 -57 41 -60 47 -4 5 -26 19 -51 30 -58 28 -58 49 0 49 39 0 45 3 56 30 9 22 11 53 5 108 -4 42 -8 97 -9 122 -1 42 1 46 36 62 44 21 88 81 88 122 0 90 -53 156 -126 156 -36 0 -41 -3 -49 -32z m-1076 -1184 c18 -8 44 -14 56 -14 25 0 105 -72 105 -94 0 -8 14 -19 30 -26 28 -12 30 -16 30 -64 0 -53 11 -76 44 -94 18 -9 17 -11 -10 -27 -16 -10 -40 -26 -54 -35 -14 -9 -40 -25 -59 -35 -55 -28 -110 -94 -111 -132 0 -25 -5 -32 -22 -35 -15 -2 -26 -13 -33 -34 -5 -16 -18 -42 -28 -57 -10 -15 -20 -41 -24 -58 -3 -17 -14 -36 -24 -42 -13 -8 -19 -24 -19 -51 0 -39 0 -39 -26 -15 -14 13 -33 38 -41 54 -9 17 -31 47 -49 68 -19 20 -34 47 -34 60 0 24 -33 103 -54 127 -20 24 -35 88 -41 181 -6 73 -4 87 9 92 9 4 16 15 16 25 0 10 23 43 51 73 27 30 56 60 62 68 7 7 30 31 52 52 38 38 42 39 90 33 28 -3 65 -12 84 -20z m1411 -721 c0 -5 -7 -17 -15 -27 -15 -20 -15 -20 -15 0 0 12 3 24 7 27 9 9 23 9 23 0z"></path></g></g><g id="l2WGl1i9kLOmeRKnu4UhSrC" fill="rgb(65,61,55)" style="transform: none;"><g><path id="pno9WKrxD" d="M2321 4606 c-28 -28 -42 -49 -39 -62 6 -31 25 -22 62 31 59 82 47 98 -23 31z"></path><path id="pTH2e5uoh" d="M620 3075 c0 -8 -5 -15 -11 -15 -6 0 -19 -10 -28 -22 -18 -21 -19 -21 -77 -6 -99 27 -174 31 -195 12 -11 -10 -19 -25 -19 -35 0 -9 -16 -26 -35 -38 -19 -11 -35 -25 -35 -31 0 -15 8 -12 47 17 34 26 37 27 47 9 39 -66 71 -78 67 -25 -2 32 1 37 24 43 14 4 35 1 47 -5 11 -6 38 -11 60 -11 21 1 38 -3 38 -8 0 -5 11 -17 24 -25 20 -13 29 -14 47 -5 18 10 21 18 16 57 -4 39 -2 46 14 50 23 6 25 38 3 47 -25 10 -34 7 -34 -9z"></path><path id="p1EsYtcTSl" d="M168 2922 c-21 -4 -33 -39 -19 -56 6 -7 8 -16 4 -19 -3 -4 4 -7 17 -7 23 0 23 1 5 14 -19 14 -19 15 -1 35 21 23 18 38 -6 33z"></path><path id="phNhIpAQ3" d="M200 2911 c0 -12 29 -23 41 -15 5 3 7 10 4 15 -8 12 -45 12 -45 0z"></path><path id="pEh40zsy2" d="M238 2824 c6 -3 10 -10 6 -15 -3 -5 11 -9 30 -9 31 0 40 -7 75 -52 21 -29 62 -75 90 -103 51 -49 51 -49 51 -120 0 -78 5 -89 38 -99 25 -8 30 -34 7 -42 -11 -4 0 -20 40 -58 55 -52 55 -52 55 -173 0 -109 2 -125 24 -163 23 -41 23 -41 30 -9 3 17 2 37 -4 44 -12 15 -17 111 -7 151 7 27 5 32 -12 37 -15 4 -21 13 -21 35 0 16 -7 35 -15 42 -9 7 -14 21 -13 32 2 10 -9 28 -27 42 -26 21 -28 25 -15 41 13 16 11 20 -14 40 -28 23 -28 45 0 45 25 0 15 39 -16 62 -35 26 -37 38 -10 63 29 26 25 35 -18 35 -26 0 -45 7 -56 19 -29 32 -11 43 67 39 48 -2 71 1 74 9 6 16 -49 43 -86 43 -16 0 -41 4 -56 10 -14 5 -47 11 -73 11 -30 1 -54 8 -67 20 -12 10 -36 21 -55 24 -19 3 -29 3 -22 -1z"></path><path id="pMycqw5rb" d="M927 2814 c3 -9 1 -19 -5 -23 -9 -5 -9 -15 0 -38 7 -17 8 -38 3 -49 -5 -10 -9 -22 -9 -26 -1 -10 -39 -37 -52 -38 -6 0 -30 27 -53 60 -23 33 -47 58 -52 55 -13 -9 -11 -22 7 -61 16 -33 16 -33 -19 -67 -20 -18 -39 -46 -43 -61 -4 -16 -17 -31 -30 -36 -22 -9 -22 -11 -9 -37 8 -15 15 -45 15 -66 0 -21 11 -73 25 -115 23 -70 25 -91 23 -217 -3 -130 -1 -143 19 -174 21 -33 22 -58 2 -46 -14 9 -11 -3 9 -38 23 -41 60 -77 78 -77 8 0 18 -8 21 -17 4 -10 17 -31 29 -48 12 -16 27 -48 33 -70 6 -22 17 -49 25 -60 9 -11 16 -29 16 -41 0 -28 47 -97 114 -167 31 -33 56 -63 56 -68 0 -14 37 -62 91 -119 26 -28 57 -71 70 -96 22 -47 103 -132 157 -164 15 -9 39 -30 53 -46 13 -16 32 -35 41 -42 14 -12 16 -10 11 10 -3 13 -15 36 -26 51 -10 15 -34 58 -53 95 -19 37 -38 74 -42 82 -34 58 -44 90 -34 102 6 8 12 57 14 111 4 92 6 99 35 129 28 31 89 118 124 176 19 34 39 102 39 135 0 13 7 27 15 31 28 10 15 26 -22 26 -32 1 -41 6 -61 37 -20 31 -22 40 -11 59 16 31 18 176 2 181 -9 3 -13 31 -13 89 0 85 0 85 -52 135 -28 28 -62 55 -75 60 -18 6 -23 16 -23 41 0 26 -7 38 -33 56 -18 12 -43 22 -55 22 -14 0 -31 14 -48 40 -19 28 -34 40 -50 40 -14 0 -24 6 -24 14 0 7 -13 16 -30 20 -29 5 -30 8 -31 58 -2 79 -11 111 -37 124 -13 6 -38 28 -56 48 -22 23 -43 36 -60 36 -19 0 -24 -4 -19 -16z"></path><path id="pkg0e7S4l" d="M2626 1335 c-3 -8 -12 -15 -21 -15 -9 0 -23 -17 -32 -37 -19 -46 -48 -85 -57 -76 -3 3 -6 4 -6 1 0 -10 70 -48 88 -48 9 0 26 -7 36 -15 17 -13 23 -11 59 26 38 38 39 40 22 59 -20 22 -13 55 10 46 18 -6 20 25 5 55 -14 24 -95 28 -104 4z"></path><path id="p1CXieEUwo" d="M2398 1205 c-6 -14 -9 -27 -7 -29 2 -2 21 -15 43 -30 30 -20 42 -23 57 -15 27 14 24 25 -16 64 -41 41 -61 44 -77 10z"></path><path id="p9ogw2Y6a" d="M3020 1151 c0 -13 -8 -21 -22 -23 -19 -2 -24 -10 -26 -45 -2 -23 -10 -47 -18 -53 -18 -16 -18 -93 1 -129 13 -26 52 -47 64 -35 3 2 -1 19 -7 37 -27 74 -3 176 44 189 15 4 31 5 36 2 15 -9 8 44 -8 60 -23 23 -64 21 -64 -3z"></path><path id="p3N2y9GLE" d="M1874 1056 c-12 -11 -42 -39 -67 -61 -45 -41 -45 -41 -52 -138 -7 -86 -5 -97 9 -97 9 0 16 6 16 13 0 7 8 17 19 24 10 6 21 25 24 42 4 17 14 43 24 58 10 15 23 41 28 57 16 48 48 46 81 -3 15 -23 31 -41 35 -41 21 0 6 46 -26 81 -37 42 -42 58 -23 77 9 9 5 12 -17 11 -17 -1 -40 -11 -51 -23z"></path></g></g><g id="l3QGWGK1j90pEbNhkR0gAIz" fill="rgb(231,210,86)" style="transform: none;"><g><path id="pFenDR49y" d="M1547 4158 c-42 -9 -138 -55 -149 -72 -4 -6 -8 -7 -8 -1 0 5 -17 -7 -37 -27 -36 -34 -107 -68 -145 -68 -9 0 -29 -16 -44 -35 -15 -19 -57 -58 -95 -85 -46 -34 -74 -62 -84 -86 -8 -20 -26 -49 -40 -66 -14 -16 -25 -35 -25 -41 0 -7 -25 -45 -55 -85 -30 -40 -55 -75 -55 -77 0 -2 -14 -19 -30 -37 -17 -18 -30 -38 -30 -45 0 -7 -4 -13 -9 -13 -5 0 -12 -24 -15 -54 -4 -30 -14 -62 -21 -72 -8 -11 -15 -43 -15 -73 0 -49 -3 -58 -35 -87 -40 -37 -47 -79 -15 -89 11 -4 44 -3 74 0 42 6 56 4 62 -8 5 -8 27 -24 49 -35 58 -31 95 -61 73 -62 -23 0 -48 -27 -48 -51 0 -11 4 -18 9 -15 10 6 40 -22 111 -103 25 -28 50 -51 56 -51 25 0 38 -33 39 -103 1 -72 1 -72 33 -82 18 -5 32 -15 32 -22 0 -7 11 -13 24 -13 16 0 31 -12 50 -40 17 -26 34 -40 48 -40 30 0 88 -41 88 -62 0 -14 -8 -18 -34 -18 -57 0 -49 -15 13 -28 50 -10 67 -21 115 -67 50 -47 56 -57 46 -75 -7 -13 -7 -20 0 -20 14 0 13 -56 -2 -81 -11 -18 -10 -23 11 -40 14 -11 23 -29 22 -44 -1 -14 -1 -37 -2 -52 0 -16 -4 -32 -9 -38 -4 -5 -10 -29 -14 -51 -4 -32 -2 -43 9 -48 8 -3 20 -17 27 -31 9 -21 18 -25 54 -25 59 0 98 16 90 36 -7 17 57 95 103 126 15 10 28 27 31 39 4 15 18 26 45 34 22 6 58 24 79 38 21 15 43 27 49 27 16 0 140 86 171 119 17 17 35 31 40 31 19 1 60 44 81 84 23 44 82 76 144 76 24 0 49 8 65 21 24 19 36 21 86 16 59 -7 59 -7 62 26 3 32 3 32 73 31 39 0 81 -2 95 -5 23 -4 25 -1 26 41 1 26 14 70 30 104 23 47 39 65 74 86 32 18 48 35 55 58 9 32 28 42 41 21 10 -17 24 11 24 52 0 19 -5 40 -11 46 -8 8 -8 22 0 49 18 65 15 81 -18 87 -49 10 -76 59 -90 162 -12 92 -9 115 21 157 10 14 8 21 -11 42 -21 22 -22 26 -8 46 10 14 13 35 10 61 -5 36 -4 39 18 39 27 0 89 -35 89 -50 0 -19 25 -10 35 12 6 13 22 25 36 28 40 8 89 54 89 84 0 19 -5 26 -19 26 -11 0 -22 4 -25 9 -3 4 -28 11 -55 15 -39 5 -55 13 -75 37 -14 17 -26 35 -26 40 0 5 -8 9 -17 9 -16 0 -32 11 -90 60 -6 5 -31 17 -55 26 -24 10 -54 27 -68 38 -14 12 -36 28 -50 34 -14 7 -33 26 -42 42 -15 26 -23 30 -58 30 -39 0 -108 34 -137 68 -7 8 -48 17 -107 22 -53 5 -109 16 -125 24 -22 12 -49 14 -115 9 -48 -3 -89 -10 -92 -15 -8 -12 -194 -10 -194 3 0 7 -13 8 -38 4 -37 -6 -42 -3 -88 44 -27 28 -57 51 -66 51 -10 0 -18 4 -18 9 0 13 -50 18 -93 9z m1150 -1093 c19 -8 46 -15 58 -15 19 0 25 -9 39 -58 9 -32 16 -64 16 -70 0 -16 -76 -5 -106 15 -12 7 -28 11 -37 7 -25 -9 -44 65 -27 105 15 36 11 35 57 16z"></path></g></g><g id="l7COpM83BhYh1F4AGeHxBwu" fill="rgb(163,171,193)" style="transform: none;"><g><path id="pc9pwJREa" d="M1674 1598 c-26 -24 -53 -50 -60 -58 -7 -8 -36 -39 -63 -69 -28 -30 -51 -62 -51 -72 0 -10 -8 -23 -19 -28 -21 -12 -26 -75 -9 -129 6 -22 6 -42 0 -62 -10 -28 -2 -57 40 -130 31 -55 58 -118 58 -137 0 -12 17 -42 38 -67 20 -24 46 -59 57 -77 11 -18 40 -48 65 -66 25 -17 55 -42 68 -54 27 -27 28 -15 2 62 -17 50 -19 74 -14 137 8 83 2 74 111 172 15 14 46 45 68 71 37 42 67 63 168 119 21 11 42 32 47 45 10 26 4 55 -11 55 -5 0 -18 9 -29 20 -15 15 -20 33 -20 74 0 50 -2 54 -30 66 -16 7 -30 18 -30 26 0 24 -80 94 -106 94 -14 0 -33 4 -43 10 -18 9 -154 40 -178 40 -6 0 -33 -19 -59 -42z"></path></g></g><g id="l4EeKwlM5VlbU12Db7PtotZ" fill="rgb(243,231,122)" style="transform: none;"><g><path id="pMG3nuqKc" d="M3170 3580 c0 -18 -64 -69 -86 -70 -37 0 -47 -24 -45 -110 2 -73 0 -80 -17 -80 -35 0 -42 -21 -32 -86 5 -32 13 -60 17 -62 47 -16 103 -75 103 -107 0 -17 -66 -85 -83 -85 -9 0 -18 -13 -22 -32 -4 -18 -14 -43 -22 -56 -13 -21 -12 -27 6 -57 11 -18 17 -42 15 -53 -4 -13 5 -27 29 -45 20 -15 41 -43 47 -62 11 -33 9 -40 -14 -76 -15 -21 -43 -47 -64 -57 -34 -15 -37 -21 -41 -62 -1 -25 2 -80 9 -123 18 -112 -8 -168 -55 -117 -31 34 -50 26 -49 -23 1 -81 3 -84 42 -102 20 -10 52 -31 70 -46 18 -16 37 -29 43 -29 6 0 46 -36 89 -81 64 -66 84 -80 110 -81 22 -1 34 -7 40 -22 9 -25 38 -51 65 -60 31 -10 85 -63 85 -84 0 -10 -6 -24 -12 -31 -11 -10 -8 -16 11 -32 31 -25 19 -37 -21 -21 -31 12 -31 12 0 -19 18 -17 32 -35 32 -41 0 -5 15 -24 34 -42 18 -19 36 -49 40 -67 8 -34 8 -34 17 -8 10 26 10 26 39 1 17 -15 30 -33 30 -42 0 -8 6 -27 14 -41 10 -20 11 -41 4 -91 -6 -40 -6 -73 -1 -83 10 -16 9 -17 130 139 18 22 42 52 53 65 11 13 20 30 20 38 0 7 34 50 76 94 41 45 81 93 87 108 6 14 23 42 37 61 41 56 70 116 70 143 0 14 23 90 51 169 72 204 79 227 79 285 0 28 4 55 10 58 12 8 13 217 1 231 -5 5 -14 27 -21 49 -7 22 -16 45 -20 50 -20 25 -48 138 -54 214 -3 53 -13 99 -26 126 -11 23 -20 46 -20 52 0 12 -23 23 -50 23 -25 0 -82 102 -75 133 8 32 -51 121 -84 125 -14 2 -34 10 -45 17 -12 8 -41 13 -66 12 -43 -1 -107 23 -205 79 -16 9 -37 21 -45 26 -36 20 -70 31 -143 43 -43 8 -93 23 -111 35 -35 21 -76 27 -76 10z"></path></g></g><g id="l17IDKRaVtlPbLUvnkmRlKN" fill="rgb(236,223,184)" style="transform: none;"><g><path id="p17EGblod8" d="M2916 1806 c-9 -14 -16 -30 -16 -36 0 -6 -7 -24 -15 -40 -13 -24 -22 -30 -49 -30 -41 0 -59 -19 -50 -55 5 -20 -1 -36 -25 -70 -17 -24 -31 -51 -31 -60 0 -9 -5 -25 -11 -36 -8 -15 -7 -24 2 -36 11 -13 8 -20 -19 -44 -56 -50 -104 -51 -123 -2 -10 27 -10 27 -22 3 -12 -24 -18 -25 -94 -25 -70 0 -85 -3 -105 -22 -13 -12 -44 -31 -70 -42 -53 -22 -60 -36 -25 -52 12 -5 31 -26 42 -46 28 -51 45 -54 45 -6 0 61 7 65 80 51 51 -10 67 -18 77 -37 28 -57 62 -47 94 26 10 25 25 43 34 43 9 0 18 7 21 15 8 19 33 19 40 0 10 -25 43 -38 60 -24 11 9 18 8 32 -5 12 -10 36 -16 65 -16 65 0 156 -50 164 -91 3 -16 14 -31 24 -34 11 -4 19 -10 19 -15 0 -5 13 -16 29 -24 40 -21 171 -156 171 -177 0 -9 -8 -23 -19 -30 -14 -11 -20 -32 -25 -86 -4 -52 -3 -73 5 -73 20 0 89 79 89 101 0 31 19 59 46 69 14 6 33 27 45 52 11 24 29 59 39 78 11 19 33 78 50 130 30 90 31 97 21 170 -8 51 -8 86 -1 110 16 56 12 77 -23 112 -18 19 -36 41 -40 51 -3 9 -14 17 -24 17 -23 0 -113 42 -113 53 0 10 -52 56 -64 57 -6 0 -22 12 -37 26 -15 14 -42 27 -60 29 -56 7 -183 32 -200 39 -11 5 -21 -1 -33 -18z"></path></g></g></svg>